<svg xmlns="http://www.w3.org/2000/svg" width="24" height="24" viewBox="0 0 24 24" fill="none" stroke="currentColor" stroke-width="2" stroke-linecap="square" stroke-linejoin="miter">
  <path d="M12 2C6.477 2 2 6.477 2 12C2 16.418 4.865 20.166 8.844 21.491C9.344 21.581 9.528 21.274 9.528 21.013C9.528 20.779 9.519 20.166 9.516 19.343C6.745 19.944 6.159 18.002 6.159 18.002C5.706 16.852 5.052 16.545 5.052 16.545C4.148 15.928 5.12 15.942 5.12 15.942C6.118 16.012 6.645 16.961 6.645 16.961C7.543 18.496 9.002 18.054 9.574 17.797C9.665 17.143 9.928 16.7 10.218 16.447C7.977 16.193 5.625 15.322 5.625 13.322C5.625 12.749 5.82 12.219 6.144 11.781C6.669 11.087 6.522 10.446 6.522 10.446C6.522 10.446 7.344 10.391 8.844 11.406C9.471 11.232 10.146 11.145 10.82 11.145C11.494 11.145 12.169 11.232 12.796 11.406C14.296 10.391 15.118 10.446 15.118 10.446C15.118 10.446 14.971 11.087 15.496 11.781C15.82 12.219 16.015 12.749 16.015 13.322C16.015 15.327 13.658 16.19 11.411 16.449C11.773 16.761 12.097 17.384 12.097 18.321C12.097 19.656 12.085 20.735 12.085 21.013C12.085 21.277 12.267 21.586 12.774 21.491C16.751 20.164 19.614 16.417 19.614 12C19.614 6.477 15.137 2 9.614 2H12Z"/>
</svg>
